. 
 
http://www.torrenting.com          :     Once & For all ;)


               www . Torrenting . Com 

(((((((((((((= Enjoy No RAR releases =))))))))))))))))))))


...................................NFO:....................................

.[IMG]http://img585.imageshack.us/img585/7574/thesitterposter.jpg[/IMG]


[color=blue][size=5][b]The.Sitter.2011.TS.XVID.AC3.HQ.Hive-CM8[/b][/size][/color]


[b]Thx Hive

CM8 Doing It Right The First Time :D

ource: 720p TS with very nice line
thx TH3GRiNCH and everyone who was also involved in either video or audio

Encode:
HAPPY CHRISTMAS to everyone in the world!!!

The Cam was very nice to begin with.
Fixed the aspect, removed a lot of noise in the video. slightly adjusted colours, cleaned the line which was sync already and muxed all together
got very nice
enjoy

Video: 720x368 @bitrate 1700 2pass
Audio: English AC3 2.0 Stereo
Sample: yes included[/b]


[url]http://www.imdb.com/title/tt1366344/[/url]


General
Complete name                  : The.Sitter.2011.TS.XVID.AC3.HQ.Hive-CM8.avi
Format                         : AVI
Format/Info                    : Audio Video Interleave
File size                      : 1.06 GiB
Duration                       : 1h 17mn
Overall bit rate               : 1 964 Kbps
Writing application            : Nandub v1.0rc2
Writing library                : Nandub build 1853/release

Video
ID                             : 0
Format                         : MPEG-4 Visual
Format profile                 : Advanced Simple@L5
Format settings, BVOP          : 2
Format settings, QPel          : Yes
Format settings, GMC           : No warppoints
Format settings, Matrix        : Default (H.263)
Muxing mode                    : Packed bitstream
Codec ID                       : XVID
Codec ID/Hint                  : XviD
Duration                       : 1h 17mn
Bit rate                       : 1 699 Kbps
Width                          : 720 pixels
Height                         : 368 pixels
Display aspect ratio           : 1.957
Frame rate                     : 24.000 fps
Color space                    : YUV
Chroma subsampling             : 4:2:0
Bit depth                      : 8 bits
Scan type                      : Progressive
Compression mode               : Lossy
Bits/(Pixel*Frame)             : 0.267
Stream size                    : 943 MiB (86%)
Writing library                : XviD 1.2.1 (UTC 2008-12-04)

Audio
ID                             : 1
Format                         : AC-3
Format/Info                    : Audio Coding 3
Mode extension                 : CM (complete main)
Codec ID                       : 2000
Duration                       : 1h 17mn
Bit rate mode                  : Constant
Bit rate                       : 256 Kbps
Channel(s)                     : 2 channels
Channel positions              : Front: L R
Sampling rate                  : 48.0 KHz
Bit depth                      : 16 bits
Compression mode               : Lossy
Delay relative to video        : 28ms
Stream size                    : 142 MiB (13%)
Alignment                      : Split accross interleaves
Interleave, duration           : 42 ms (1.00 video frame)
Interleave, preload duration   : 500 ms



A comedy about a college student on suspension who is coaxed into babysitting the kids next door, 
though he is fully unprepared for the wild night ahead of him. 


Jonah Hill	... 	Noah Griffith
Max Records	... 	Slater
Ari Graynor	... 	Marisa Lewis
J.B.... 	Julio


[img]http://img847.imageshack.us/img847/4272/83619976.png[/img]
[img]http://img64.imageshack.us/img64/5570/sisija.png[/img]
[img]http://img850.imageshack.us/img850/7425/sisisist.png[/img]
[img]http://img18.imageshack.us/img18/9566/sisisisi.png[/img]
[img]http://img18.imageshack.us/img18/8595/sisissii.png[/img]
[IMG]http://img267.imageshack.us/img267/8727/sisissisii.png[/IMG]
[img]http://img14.imageshack.us/img14/4427/sisissisiisi.png[/img]
[img]http://img513.imageshack.us/img513/7410/sisississiiisi.png[/img]
[img]http://img546.imageshack.us/img546/733/sisississisiiisi.png[/img]




Greetz

ViSiON,SPK,SiC,SANTi,3LT0N,YanKeeS,MAGNET,THC,T0XiC,LKRG,Feel-Free,FLAWL3SS,
WBZ,BHRG,NOVA,D2U,Rapeseed,SAFC,goldadvance,KaN1vE,Unevano,Pinnz,Wayne
Mr Hive,and most P2P groups
Great Work Guys :D

LOOKING FOR ANYTHING YOU WANT TO LOOK AND SOUND BETTER

CM8@hushmail.com